<?xml version="1.0" encoding="utf-8"?>
<!-- Generator: Adobe Illustrator 24.1.0, SVG Export Plug-In . SVG Version: 6.00 Build 0)  -->
<svg version="1.1" id="Layer_1" xmlns="http://www.w3.org/2000/svg" xmlns:xlink="http://www.w3.org/1999/xlink" x="0px" y="0px"
	 viewBox="0 0 117 40" style="enable-background:new 0 0 117 40;" xml:space="preserve">
<g>
	<path d="M14.3,21.77c0,1.28-2.76,4.3-8.79,4.64c-1.61,0.09-3.86-0.45-3.86-2.49c0-0.72-0.11-0.83,2.49-4.26
		c-0.63-0.04-2.06-0.11-2.06-0.87c0-0.96,3.14-1.01,3.81-1.21c1.46-1.41,2.94-3.29,5.18-3.29c-0.16,0.38-0.31,0.67-2.17,2.85
		c5.07-0.69,6.25-2.22,6.21-2.82c-0.02-0.49-0.65-1.28-3.25-1.1c-0.52,0.04-2.89,0.34-6.3,1.57c0.13,0.07,0.31,0.16,0.31,0.34
		c0,0.34-0.52,0.47-0.81,0.52c-1.39,0.22-1.82,0.43-3.12,0.85c-0.2,0.07-0.45,0.16-0.69,0.16c-0.38,0-0.56-0.22-0.56-0.61
		c0-0.16,0.34-0.96,1.03-1.88c0.47-0.63,1.12-1.48,1.88-1.77c2.17-0.83,6.37-1.7,8.7-1.7c3.86,0,4.77,1.52,4.77,2.73
		c0,3.63-6.79,4.55-9.41,5.07l-0.45,0.4C8.81,19.17,14.3,19.62,14.3,21.77z M4.97,21.37c-0.29,0.31-0.78,0.81-0.78,1.28
		c0,0.96,1.77,1.23,2.49,1.23c2-0.02,5.09-1.48,5.09-2.38c0-1.17-4.62-1.5-5.54-1.5L4.97,21.37z"/>
	<path d="M16.81,23.34c1.1-0.87,5.18-4.46,6.41-4.46c0.54,0,1.08,0.56,1.08,1.08c0,0.43-0.9,1.41-1.17,1.73
		c-1.39,1.68-1.32,1.75-1.32,1.97c0,0.29,0.22,0.47,0.49,0.47c0.74,0,2.38-1.21,3.03-1.64l0.11,0.92c-1.03,0.78-3.74,2.98-4.98,2.98
		c-0.67,0-1.03-0.58-1.03-1.19c0-1.41,1.55-3.12,2.35-4.17l-0.04-0.04c-3.83,2.62-4.95,5-5.67,5c-0.78,0-0.9-1.75-0.9-2.26
		c0-1.55,0.58-2.62,1.37-3.9c2.65-4.37,7.11-8.29,7.87-8.29c0.36,0,0.96,0.16,0.96,0.61c0,1.52-7.13,8.92-8.56,10.33V23.34z"/>
	<path d="M31.67,20.2c0.47-0.43,2.67-2.56,3.23-2.56c0.18,0,0.43,0.07,0.52,1.23c0.04,0.54-0.56,1.05-0.92,1.37
		c-0.72,0.65-2.31,2.42-2.31,3.43c0,0.36,0.2,0.49,0.56,0.49c0.85,0,2.78-1.57,3.45-2.11l0.13,0.96c-1.14,1.1-3.52,3.68-5.18,3.68
		c-0.83,0-1.32-0.7-1.32-1.48c0-0.67,0.25-1.3,0.47-1.88l-0.04-0.04c-0.87,0.76-2.38,2.78-3.61,2.78c-1.1,0-1.7-1.25-1.7-2.22
		c0-2.17,1.68-4.42,3.12-5.36c0.31-0.2,0.61-0.25,0.99-0.25c0.31,0,1.46-0.2,1.37,0.47c-0.04,0.36-0.65,0.99-0.9,1.19
		c-0.69,0.78-0.83,0.99-1.7,1.61c-0.7,0.49-1.23,0.99-1.23,1.93c0,0.11,0.02,0.34,0.18,0.34c0.4,0,1.64-0.65,2.69-1.59L31.67,20.2z"
		/>
	<path d="M44.21,17.8c0.45,0,0.67,0.29,0.67,0.74c0,0.9-1.3,3-1.86,3.79c0.25,0.22,0.4,0.29,0.76,0.29c0.58,0,1.41-0.56,1.91-0.9
		l0.16,0.94c-0.78,0.9-1.61,1.59-2.87,1.59c-0.47,0-0.78-0.31-1.17-0.58c-0.63,0.72-2.89,2.69-3.77,2.69
		c-1.32,0-2.22-1.68-2.22-3.38c0-3.09,2.76-5.25,3.54-5.25c0.31,0,1.34,0.04,1.34,0.52c0,1.01-2.11,3.27-2.91,3.94
		c-0.11,0.36-0.34,0.96-0.34,1.32c0,0.36,0.09,0.87,0.54,0.87c0.65,0,2.42-1.64,2.89-2.08c-0.09-1.03,0.52-1.88,1.12-2.65
		C42.43,19.1,43.42,17.8,44.21,17.8z"/>
	<path d="M49.2,24.64c-0.43,0.34-1.86,1.5-2.38,1.5c-0.63,0-1.93-1.48-1.97-2.64c-0.09-2.8,5.74-5.67,8.34-5.74
		c1.03-0.02,1.46,0.81,1.46,1.08s-0.58,0.49-0.78,0.56c0.43,0.18,0.65,0.43,0.65,0.92c0,0.72-1.95,2.29-1.95,3.34
		c0,0.38,0.34,0.54,0.69,0.54c0.94,0,2.22-1.14,3.18-1.79l0.18,0.83c-0.96,1.1-3.97,3.5-5.07,3.5c-0.74,0-1.08-0.54-1.08-1.19
		c0-0.72,0.54-1.91,0.83-2.51l-0.04-0.04L49.2,24.64z M46.49,24.06c0.02,0.11,0.11,0.52,0.45,0.45c0.45-0.09,1.14-0.02,5.58-4.5
		l-0.04-0.04C47.14,21.59,46.49,22.96,46.49,24.06z"/>
	<path d="M66.96,21.73l0.18,0.99c-1.19,1.05-3.5,3.81-5.13,3.81c-0.85,0-1.25-0.72-1.25-1.48c0-1.34,1.21-2.82,1.93-3.86l-0.04-0.04
		c-1.3,0.96-2.44,2.13-3.45,3.43c-0.34,0.43-1.17,1.52-1.77,1.52c-0.99,0-1.23-1.41-1.26-2.17c-0.07-1.55,1.35-3.81,2.65-4.91
		c0.29-0.25,0.49-0.27,0.87-0.27c1.34,0.04,1.23,0.36,1.23,0.49c0,0.87-2.82,3.14-2.82,3.68c0,0.13,0.11,0.25,0.25,0.25
		c0.16,0,0.36-0.2,0.45-0.31c1.79-2.29,5.92-5.04,6.57-5.04c0.09,0,0.22,0.11,0.36,0.43c0.13,0.34,0.27,0.74,0.34,1.21
		c0,0.87-2.76,2.58-2.76,4.12c0,0.2,0.18,0.4,0.4,0.4c0.54,0,1.52-0.79,1.93-1.12L66.96,21.73z"/>
	<path d="M70.61,23.97c0.2,0.04,0.43,0.16,0.43,0.4c0,0.29-0.56,1.03-1.14,1.82c-0.29,0.4-0.76,1.05-1.32,1.05
		c-0.54,0-0.76-0.31-0.76-0.81c0-0.99,1.59-3.43,2.13-4.37c-0.54-0.34-1.01-0.74-1.01-1.44c0-1.3,2.64-1.91,3.59-2.2l3.56-4.71
		c-3.92,0.07-7.04,1.5-7.71,1.5c-0.13,0-0.36-0.02-0.36-0.22c0-0.54,1.3-2.26,1.66-2.76c0.4-0.56,1.08-0.74,1.7-0.92
		c1.95-0.56,4.01-0.78,6.03-0.78c5.56,0,7.11,1.79,7.11,4.57c0,4.77-5.81,8.14-12.98,7.33L70.61,23.97z M74.54,18.14
		c0.83,0,1.75-0.31,1.75,0.11c0,0.45-1.91,0.56-2.26,0.81l-0.49,0.74c0.83,0.22,1.59,0.27,2.31,0.22c4.39-0.25,7.29-3.45,7.04-4.86
		c-0.25-1.37-4.46-1.64-5.49-1.64c-0.02,0.6-0.16,0.9-0.49,1.37L74.54,18.14z"/>
	<path d="M87.07,24.64c-0.43,0.34-1.86,1.5-2.38,1.5c-0.63,0-1.93-1.48-1.97-2.64c-0.09-2.8,5.74-5.67,8.34-5.74
		c1.03-0.02,1.46,0.81,1.46,1.08s-0.58,0.49-0.78,0.56c0.43,0.18,0.65,0.43,0.65,0.92c0,0.72-1.95,2.29-1.95,3.34
		c0,0.38,0.34,0.54,0.7,0.54c0.94,0,2.22-1.14,3.18-1.79l0.18,0.83c-0.96,1.1-3.97,3.5-5.07,3.5c-0.74,0-1.08-0.54-1.08-1.19
		c0-0.72,0.54-1.91,0.83-2.51l-0.04-0.04L87.07,24.64z M84.36,24.06c0.02,0.11,0.11,0.52,0.45,0.45c0.45-0.09,1.14-0.02,5.58-4.5
		l-0.04-0.04C85.01,21.59,84.36,22.96,84.36,24.06z"/>
	<path d="M102.11,16.82c-1.05,2.13-1.23,2.96-3.7,2.8c-0.76,0.99-2.04,2.82-2.04,4.17c0,0.49,0.16,0.78,0.67,0.78
		c0.72,0,1.52-0.67,3.86-2.33l0.11,0.99c-1.32,1.21-3.74,3.61-5.65,3.61c-0.87,0-1.41-0.61-1.41-1.5c0-0.74,0.29-1.59,0.58-2.24
		l-0.04-0.04l-1.14,0.92l-0.25-0.85c1.34-1.03,2.58-2.17,3.41-3.59c-1.37,0-0.94-0.09-2.13,0.09l0.25-0.4
		c1.21-1.97,1.39-2.33,3.79-2.42c0.67-0.92,1.17-1.97,2.47-1.97c0.29,0,0.72,0.07,0.72,0.43c0,0.4-0.65,1.14-0.87,1.46L102.11,16.82
		z"/>
	<path d="M109.19,22.82c-1.37,1.59-3.83,3.7-6.05,3.7c-1.64,0-2.4-1.46-2.44-2.94c-0.09-2.94,3.16-5.94,6.08-5.92
		c0.72,0,1.61,0.18,1.61,1.08c0,1.1-1.1,2.76-5.4,4.17l-0.04,0.49c-0.07,0.85,0.67,1.14,1.39,1.14c1.59,0,3.47-1.64,4.66-2.58
		L109.19,22.82z M106.41,19.22c0-0.16-0.11-0.29-0.27-0.25c-1.12,0.29-2.42,1.37-3.03,2.85C105.09,21.14,106.44,19.6,106.41,19.22z"
		/>
	<path d="M116.01,22.85c-1.23,1.28-3.34,3.54-5.27,3.54c-1.64,0-2-1.59-2-2.91c0-2.35,1.01-4.89,2.47-6.68
		c1.97-2.44,4.1-4.53,4.82-4.53c0.38,0,0.47,0.54,0.45,0.83c-0.16,2.13-0.74,4.1-5.6,8.81c-0.2,0.38-0.27,1.01-0.16,1.55
		c0.2,0.52,0.52,0.96,1.12,0.96c1.23,0,2.96-1.43,3.86-2.24L116.01,22.85z M111.37,19.84c1.59-1.48,2.98-3.63,3.38-4.91
		c-1.1,0.54-2.38,2.56-3.43,4.86L111.37,19.84z"/>
</g>
</svg>
